<svg width="90" height="91" viewBox="0 0 90 91" fill="none" xmlns="http://www.w3.org/2000/svg">
<rect width="90" height="90" transform="translate(0 0.050293)" fill="#5765F2"/>
<g clip-path="url(#clip0_129_645)">
<path d="M67.1441 24.7083C63.0713 22.8396 58.7039 21.4628 54.1375 20.6742C54.0543 20.659 53.9712 20.697 53.9284 20.7731C53.3667 21.7721 52.7445 23.0754 52.3089 24.0998C47.3974 23.3645 42.5111 23.3645 37.7003 24.0998C37.2645 23.0526 36.6198 21.7721 36.0556 20.7731C36.0127 20.6996 35.9297 20.6615 35.8465 20.6742C31.2826 21.4602 26.9152 22.8371 22.8399 24.7083C22.8046 24.7236 22.7744 24.7489 22.7543 24.7819C14.4702 37.1581 12.2008 49.2302 13.3141 61.1526C13.3192 61.2109 13.3519 61.2667 13.3972 61.3022C18.8628 65.316 24.1572 67.7527 29.3533 69.3679C29.4364 69.3933 29.5245 69.3628 29.5775 69.2944C30.8066 67.6159 31.9023 65.846 32.8417 63.9848C32.8971 63.8758 32.8442 63.7465 32.7309 63.7034C30.993 63.0441 29.3382 62.2403 27.7463 61.3276C27.6204 61.254 27.6103 61.0739 27.7262 60.9877C28.0612 60.7367 28.3962 60.4755 28.7161 60.2118C28.7739 60.1637 28.8546 60.1535 28.9226 60.1839C39.3803 64.9585 50.7019 64.9585 61.0362 60.1839C61.1042 60.151 61.1848 60.1612 61.2452 60.2093C61.5652 60.473 61.9002 60.7367 62.2377 60.9877C62.3535 61.0739 62.3459 61.254 62.22 61.3276C60.6282 62.2581 58.9734 63.0441 57.2329 63.7009C57.1196 63.744 57.0692 63.8758 57.1247 63.9848C58.0843 65.8434 59.1799 67.6132 60.3864 69.2918C60.4368 69.3628 60.5274 69.3933 60.6106 69.3679C65.8318 67.7527 71.1261 65.316 76.5918 61.3022C76.6396 61.2667 76.6699 61.2134 76.6749 61.1551C78.0073 47.3715 74.4433 35.3985 67.2272 24.7844C67.2095 24.7489 67.1794 24.7236 67.1441 24.7083ZM34.4034 53.8931C31.2549 53.8931 28.6606 51.0026 28.6606 47.4527C28.6606 43.9028 31.2046 41.0123 34.4034 41.0123C37.6273 41.0123 40.1964 43.9282 40.146 47.4527C40.146 51.0026 37.6021 53.8931 34.4034 53.8931ZM55.6361 53.8931C52.4877 53.8931 49.8934 51.0026 49.8934 47.4527C49.8934 43.9028 52.4373 41.0123 55.6361 41.0123C58.86 41.0123 61.4291 43.9282 61.3788 47.4527C61.3788 51.0026 58.86 53.8931 55.6361 53.8931Z" fill="white"/>
</g>
<defs>
<clipPath id="clip0_129_645">
<rect width="63.9" height="49.5" fill="white" transform="translate(13.05 20.3003)"/>
</clipPath>
</defs>
</svg>
