<svg width="74" height="75" viewBox="0 0 74 75" fill="none" xmlns="http://www.w3.org/2000/svg">
<g clip-path="url(#clip0_131_653)">
<path d="M74 0.050293H0V74.0503H74V0.050293Z" fill="#855DCD"/>
<path d="M19.0757 11.5615H54.9245V62.5392H49.6623V39.1882H49.6107C49.0291 32.7345 43.6052 27.677 37.0001 27.677C30.395 27.677 24.9711 32.7345 24.3895 39.1882H24.3379V62.5392H19.0757V11.5615Z" fill="white"/>
<path d="M9.5376 18.7969L11.6754 26.0324H13.4842V55.3036C12.576 55.3036 11.8398 56.0398 11.8398 56.948V58.9214H11.511C10.6028 58.9214 9.86645 59.6576 9.86645 60.5658V62.5391H28.2842V60.5658C28.2842 59.6576 27.548 58.9214 26.6398 58.9214H26.311V56.948C26.311 56.0398 25.5747 55.3036 24.6665 55.3036H22.6932V18.7969H9.5376Z" fill="white"/>
<path d="M49.9912 55.3036C49.083 55.3036 48.3468 56.0398 48.3468 56.948V58.9214H48.018C47.1098 58.9214 46.3735 59.6576 46.3735 60.5658V62.5391H64.7912V60.5658C64.7912 59.6576 64.055 58.9214 63.1468 58.9214H62.818V56.948C62.818 56.0398 62.0817 55.3036 61.1735 55.3036V26.0324H62.9824L65.1202 18.7969H51.9646V55.3036H49.9912Z" fill="white"/>
</g>
<defs>
<clipPath id="clip0_131_653">
<rect width="74" height="74" fill="white" transform="translate(0 0.050293)"/>
</clipPath>
</defs>
</svg>
