<svg width="61" height="61" viewBox="0 0 61 61" fill="none" xmlns="http://www.w3.org/2000/svg">
<g filter="url(#filter0_d_97_572)">
<rect x="9.80859" y="9" width="42.2927" height="42.2927" rx="21.1464" fill="white" shape-rendering="crispEdges"/>
<rect x="9.80859" y="9" width="42.2927" height="42.2927" rx="21.1464" stroke="black" stroke-dasharray="6 6" shape-rendering="crispEdges"/>
<path d="M26.7162 26.7456C26.7162 27.2987 26.5354 27.7561 26.1738 28.1177C25.8121 28.5006 25.3654 28.6921 24.8336 28.6921C24.3656 28.6921 23.9507 28.5219 23.5891 28.1815C23.2275 27.8412 23.0466 27.437 23.0466 26.969C23.0466 26.4371 23.2062 25.9798 23.5253 25.5969C23.8656 25.1501 24.3017 24.9268 24.8336 24.9268C25.259 24.9268 25.6739 25.1289 26.0781 25.533C26.5035 25.9585 26.7162 26.3627 26.7162 26.7456Z" fill="black"/>
<path d="M38.8636 26.7456C38.8636 27.2987 38.6828 27.7561 38.3211 28.1177C37.9595 28.5006 37.5128 28.6921 36.9809 28.6921C36.5129 28.6921 36.0981 28.5219 35.7364 28.1815C35.3748 27.8412 35.194 27.437 35.194 26.969C35.194 26.4371 35.3535 25.9798 35.6726 25.5969C36.013 25.1501 36.4491 24.9268 36.9809 24.9268C37.4064 24.9268 37.8212 25.1289 38.2254 25.533C38.6509 25.9585 38.8636 26.3627 38.8636 26.7456Z" fill="black"/>
<path fill-rule="evenodd" clip-rule="evenodd" d="M21.09 34.5012C21.4562 33.8922 22.2468 33.6954 22.8558 34.0617C24.1184 34.821 25.4093 35.3969 26.7658 35.5544C27.1567 35.5997 27.5369 35.6805 27.8503 35.747C27.8828 35.7539 27.9145 35.7606 27.9455 35.7672C28.2992 35.8418 28.5773 35.8956 28.8451 35.9162C30.688 36.0582 32.6346 36.0232 34.4447 35.7787C35.2921 35.6642 36.0462 35.5437 36.7613 35.3269C37.0665 35.2344 37.3098 35.1009 37.6774 34.8992C37.7888 34.8382 37.9115 34.7708 38.0509 34.6964C38.135 34.6515 38.1954 34.6159 38.2722 34.5706C38.3415 34.5298 38.4242 34.481 38.5499 34.4103C38.7432 34.3016 39.0326 34.1463 39.3443 34.0519C40.0243 33.8457 40.7427 34.23 40.9489 34.91C41.155 35.5901 40.7708 36.3085 40.0907 36.5146C40.091 36.5145 40.0839 36.5167 40.0684 36.5229C40.0532 36.529 40.0328 36.5379 40.0069 36.5502C39.9536 36.5755 39.8896 36.6093 39.811 36.6535C39.745 36.6906 39.6801 36.7285 39.6065 36.7715C39.5907 36.7808 39.5745 36.7902 39.5578 36.8C39.4699 36.8513 39.3659 36.9115 39.2625 36.9667C39.1921 37.0043 39.1143 37.0474 39.03 37.0941C38.6351 37.313 38.0974 37.6109 37.5077 37.7897C36.5812 38.0705 35.6519 38.2123 34.7892 38.3289C32.7801 38.6003 30.6505 38.6363 28.6474 38.482C28.1925 38.4469 27.765 38.3591 27.4143 38.2851C27.3867 38.2793 27.3596 38.2736 27.3329 38.2679C26.9979 38.1971 26.7342 38.1413 26.4691 38.1106C24.5943 37.8929 22.9388 37.1145 21.5295 36.2669C20.9205 35.9007 20.7238 35.1101 21.09 34.5012Z" fill="black"/>
</g>
<defs>
<filter id="filter0_d_97_572" x="5.30859" y="8.5" width="51.2927" height="51.293" filterUnits="userSpaceOnUse" color-interpolation-filters="sRGB">
<feFlood flood-opacity="0" result="BackgroundImageFix"/>
<feColorMatrix in="SourceAlpha" type="matrix" values="0 0 0 0 0 0 0 0 0 0 0 0 0 0 0 0 0 0 127 0" result="hardAlpha"/>
<feOffset dy="4"/>
<feGaussianBlur stdDeviation="2"/>
<feComposite in2="hardAlpha" operator="out"/>
<feColorMatrix type="matrix" values="0 0 0 0 0 0 0 0 0 0 0 0 0 0 0 0 0 0 0.25 0"/>
<feBlend mode="normal" in2="BackgroundImageFix" result="effect1_dropShadow_97_572"/>
<feBlend mode="normal" in="SourceGraphic" in2="effect1_dropShadow_97_572" result="shape"/>
</filter>
</defs>
</svg>
