<svg width="183" height="124" viewBox="0 0 183 124" fill="none" xmlns="http://www.w3.org/2000/svg">
<path d="M114.509 111.551C119.022 112.123 130.892 116.018 134.426 118.845C135.587 119.774 135.424 121.183 136.301 122.311C136.478 122.538 136.55 122.875 136.619 122.497C137.003 120.384 138.973 118.152 140.337 116.605L140.403 116.531C143.48 113.042 147.344 110.187 151.073 107.439C152.269 106.559 153.434 105.63 154.967 105.63M73.5738 0.0732422C73.5738 6.58698 73.964 11.7823 71.0922 17.7958C68.0918 24.0789 62.0288 29.5921 55.6806 33.5491C42.589 41.7097 25.3508 44.0919 10.9477 50.2871C-3.67432 56.5764 -1.53625 80.6513 13.168 85.2398C24.1225 88.6582 35.8682 89.9243 46.9953 93.0071C59.1117 96.3641 71.3041 98.5317 84.0876 98.5317C90.1698 98.5317 98.053 99.6582 103.842 97.7933C106.933 96.7975 111.896 97.4862 115.172 97.5471C119.371 97.6253 122.064 100.22 124.772 102.525C128.491 105.691 131.447 108.894 133.784 112.808C135.055 114.938 136.461 121.972 136.461 119.591C136.461 110.627 130.093 97.7059 141.881 92.1319C148.579 88.9649 155.843 88.3522 163.17 87.2363C170.008 86.1949 173.725 82.5004 178.059 78.7306C180.318 76.7662 181.226 72.9638 181.841 70.3886L181.847 70.3617C182.661 66.9523 182.978 63.0546 180.737 60.0509C175.424 52.9303 166.685 46.4935 158.534 41.6993C151.835 37.7598 145.797 35.2661 137.636 34.5337C132.022 34.0298 125.935 31.3317 120.723 29.6108C116.412 28.1875 111.883 27.021 107.793 25.1802C101.933 22.5429 96.469 20.0313 90.8792 17.03C86.8293 14.8555 82.0191 11.9828 78.8633 8.96185C76.4992 6.69873 73.5738 2.96144 73.5738 0.0732422Z" stroke="black" stroke-linecap="round" stroke-dasharray="2 2"/>
</svg>
