<svg width="34" height="35" viewBox="0 0 34 35" fill="none" xmlns="http://www.w3.org/2000/svg">
<g clip-path="url(#clip0_133_659)">
<rect width="34" height="34" transform="translate(0 0.050293)" fill="#2BABEE"/>
<path d="M17 34.0503C26.3888 34.0503 34 26.4391 34 17.0503C34 7.66145 26.3888 0.050293 17 0.050293C7.61116 0.050293 0 7.66145 0 17.0503C0 26.4391 7.61116 34.0503 17 34.0503Z" fill="url(#paint0_linear_133_659)"/>
<path fill-rule="evenodd" clip-rule="evenodd" d="M7.69495 16.8707C12.6508 14.7115 15.9555 13.2881 17.609 12.6003C22.33 10.6367 23.311 10.2956 23.9504 10.2843C24.0911 10.2818 24.4055 10.3167 24.6092 10.4819C24.7812 10.6215 24.8285 10.81 24.8511 10.9423C24.8738 11.0746 24.902 11.3761 24.8796 11.6116C24.6237 14.2997 23.5167 20.823 22.9536 23.8337C22.7153 25.1076 22.246 25.5348 21.7918 25.5766C20.8045 25.6674 20.0549 24.9242 19.0987 24.2974C17.6025 23.3166 16.7572 22.7061 15.3049 21.749C13.6265 20.6429 14.7145 20.035 15.671 19.0415C15.9214 18.7815 20.2711 14.8251 20.3553 14.4662C20.3658 14.4213 20.3756 14.254 20.2762 14.1656C20.1768 14.0773 20.0301 14.1075 19.9242 14.1315C19.7741 14.1656 17.3839 15.7454 12.7535 18.8711C12.075 19.337 11.4605 19.564 10.9099 19.5521C10.3029 19.539 9.13533 19.2089 8.26734 18.9267C7.20272 18.5807 6.35657 18.3977 6.43025 17.81C6.46863 17.5038 6.8902 17.1908 7.69495 16.8707Z" fill="white"/>
</g>
<defs>
<linearGradient id="paint0_linear_133_659" x1="1700" y1="0.050293" x2="1700" y2="3374.83" gradientUnits="userSpaceOnUse">
<stop stop-color="#2AABEE"/>
<stop offset="1" stop-color="#229ED9"/>
</linearGradient>
<clipPath id="clip0_133_659">
<rect width="34" height="34" fill="white" transform="translate(0 0.050293)"/>
</clipPath>
</defs>
</svg>
