<svg width="54" height="54" viewBox="0 0 54 54" fill="none" xmlns="http://www.w3.org/2000/svg">
<rect width="54" height="54" fill="black"/>
<path d="M30.4082 24.473L42.3885 10.5468L42.7439 10.1338H42.199H39.3304H39.2157L39.1409 10.2207L28.8414 22.1929L20.63 10.2422L20.5555 10.1338H20.4239H10.741H10.2659L10.5349 10.5254L23.1212 28.8428L10.5515 43.4532L10.1961 43.8662H10.741H13.6097H13.7245L13.7993 43.7793L24.6877 31.1225L33.3698 43.7578L33.4443 43.8662H33.5759H43.2588H43.7339L43.4649 43.4747L30.4082 24.473ZM35.0557 41.3049L26.4143 28.9447V28.944L26.3692 28.8795L25.0829 27.0397L15.1232 12.7934H18.9194L27.1042 24.5012L27.3091 24.3579L27.1043 24.5012L28.3906 26.341L38.8519 41.3049H35.0557Z" fill="white" stroke="white" stroke-width="0.5"/>
</svg>
